# xmcd
#
# Track frame offsets:
#	150
#	17479
#	53329
#	78544
#	104956
#	135749
#	159728
#	188841
#	214281
#	294824
#
# Disc length: 4294 seconds
#
# Revision: 1
# Processed by: cddbd v1.5.2PL0 Copyright (c) Steve Scherf et al.
# Submitted via: audiograbber 1.83.01
#
DISCID=8910c40a
DTITLE=Bagashree Vaze - Tarana
DYEAR=2007
DGENRE=Ethnic
TTITLE0=Vinayak
TTITLE1=Tarana
TTITLE2=Yoga
TTITLE3=In Akbar's Palace
TTITLE4=Dhoot (Messenger)
TTITLE5=Devi
TTITLE6=Lucknow's Jewel
TTITLE7=Janabai's Dream
TTITLE8=Kathak
TTITLE9=Bageshree's Thrillana
EXTD=
EXTT0=
EXTT1=
EXTT2=
EXTT3=
EXTT4=
EXTT5=
EXTT6=
EXTT7=
EXTT8=
EXTT9=
PLAYORDER=
